HIERARCHY
ROOT hip
{
	OFFSET 0.00000 0.00000 0.00000
	CHANNELS 6 Xposition Yposition Zposition Zrotation Yrotation Xrotation 
	JOINT lhipjoint
	{
		OFFSET 0 0 0
		CHANNELS 3 Zrotation Yrotation Xrotation
		JOINT lfemur
		{
			OFFSET 1.57314 -1.85774 0.63783
			CHANNELS 3 Zrotation Yrotation Xrotation
			JOINT ltibia
			{
				OFFSET 2.57982 -7.08799 0.00000
				CHANNELS 3 Zrotation Yrotation Xrotation
				JOINT lfoot
				{
					OFFSET 2.63993 -7.25315 0.00000
					CHANNELS 3 Zrotation Yrotation Xrotation
					JOINT ltoes
					{
						OFFSET 0.16864 -0.46332 2.12791
						CHANNELS 3 Zrotation Yrotation Xrotation
						End Site
						{
							OFFSET 0.00000 -0.00000 1.09718
						}
					}
				}
			}
		}
	}
	JOINT rhipjoint
	{
		OFFSET 0 0 0
		CHANNELS 3 Zrotation Yrotation Xrotation
		JOINT rfemur
		{
			OFFSET -1.56006 -1.85774 0.63784
			CHANNELS 3 Zrotation Yrotation Xrotation
			JOINT rtibia
			{
				OFFSET -2.54246 -6.98536 0.00000
				CHANNELS 3 Zrotation Yrotation Xrotation
				JOINT rfoot
				{
					OFFSET -2.65791 -7.30256 0.00000
					CHANNELS 3 Zrotation Yrotation Xrotation
					JOINT rtoes
					{
						OFFSET -0.18435 -0.50650 2.16316
						CHANNELS 3 Zrotation Yrotation Xrotation
						End Site
						{
							OFFSET -0.00000 -0.00000 1.11780
						}
					}
				}
			}
		}
	}
	JOINT lowerback
	{
		OFFSET 0 0 0
		CHANNELS 3 Zrotation Yrotation Xrotation
		JOINT upperback
		{
			OFFSET -0.00136 1.92812 -0.29638
			CHANNELS 3 Zrotation Yrotation Xrotation
			JOINT thorax
			{
				OFFSET -0.00528 1.96223 -0.02928
				CHANNELS 3 Zrotation Yrotation Xrotation
				JOINT lowerneck
				{
					OFFSET 0 0 0
					CHANNELS 3 Zrotation Yrotation Xrotation
					JOINT upperneck
					{
						OFFSET -0.01015 1.75586 0.07797
						CHANNELS 3 Zrotation Yrotation Xrotation
						JOINT head
						{
							OFFSET 0.05540 1.72452 0.04558
							CHANNELS 3 Zrotation Yrotation Xrotation
							End Site
							{
								OFFSET 0.02170 1.79958 0.00864
							}
						}
					}
				}
				JOINT lclavicle
				{
					OFFSET 0 0 0
					CHANNELS 3 Zrotation Yrotation Xrotation
					JOINT lhumerus
					{
						OFFSET 3.16292 1.29277 -0.65728
						CHANNELS 3 Zrotation Yrotation Xrotation
						JOINT lradius
						{
							OFFSET 5.52302 -0.00000 -0.00000
							CHANNELS 3 Zrotation Yrotation Xrotation
							JOINT lwrist
							{
								OFFSET 3.58675 -0.00000 -0.00000
								CHANNELS 3 Zrotation Yrotation Xrotation
								JOINT lhand
								{
									OFFSET 0 0 0
									CHANNELS 3 Zrotation Yrotation Xrotation
									JOINT lfingers
									{
										OFFSET 0.53641 -0.00000 -0.00000
										CHANNELS 3 Zrotation Yrotation Xrotation
										End Site
										{
											OFFSET 0.43247 -0.00000 -0.00000
										}
									}
								}
								JOINT lthumb
								{
									OFFSET 0 0 0
									CHANNELS 3 Zrotation Yrotation Xrotation
									End Site
									{
										OFFSET 0.43907 -0.00000 0.43907
									}
								}
							}
						}
					}
				}
				JOINT rclavicle
				{
					OFFSET 0 0 0
					CHANNELS 3 Zrotation Yrotation Xrotation
					JOINT rhumerus
					{
						OFFSET -3.08296 1.43376 -0.52927
						CHANNELS 3 Zrotation Yrotation Xrotation
						JOINT rradius
						{
							OFFSET -5.84780 -0.00000 0.00000
							CHANNELS 3 Zrotation Yrotation Xrotation
							JOINT rwrist
							{
								OFFSET -3.62717 -0.00000 -0.00000
								CHANNELS 3 Zrotation Yrotation Xrotation
								JOINT rhand
								{
									OFFSET 0 0 0
									CHANNELS 3 Zrotation Yrotation Xrotation
									JOINT rfingers
									{
										OFFSET -0.65052 -0.00000 -0.00000
										CHANNELS 3 Zrotation Yrotation Xrotation
										End Site
										{
											OFFSET -0.52446 -0.00000 -0.00000
										}
									}
								}
								JOINT rthumb
								{
									OFFSET 0 0 0
									CHANNELS 3 Zrotation Yrotation Xrotation
									End Site
									{
										OFFSET -0.53247 -0.00000 0.53247
									}
								}
							}
						}
					}
				}
			}
		}
	}
}
MOTION
Frames: 6
Frame Time: 0.033333
9.9682 18.1944 -23.4836 4.8536 -28.0173 2.2428 -0.0000 0.0000 -0.0000 -28.0667 -3.8847 4.3262 0.6617 5.6623 15.4070 0.2752 1.8965 -12.0263 1.6104 -8.0561 -23.0193 0.0000 -0.0000 -0.0000 10.9349 19.3108 -25.2171 -4.2817 -11.9996 36.4746 0.1968 -14.6359 -15.6665 -0.0176 0.5660 -1.5014 -5.2945 -1.5639 12.1176 -0.9886 -2.6433 1.7009 2.4167 -1.2570 -4.7146 0.5477 1.7171 -4.0488 0.6884 2.2425 4.9823 0.1247 1.1997 2.5062 0.0000 0.0000 -0.0000 -76.4255 -22.6096 31.9898 13.9512 -22.7350 -2.7534 -0.0000 -0.0000 -9.0654 37.0215 14.4086 10.3774 -7.1302 0.0000 -0.0000 9.2852 47.4598 0.5831 0.0000 0.0000 0.0000 84.1588 -3.5349 23.5136 -15.1218 24.4807 -3.1800 0.0000 0.0000 14.0909 -22.1316 12.8723 -5.3278 7.1302 0.0000 0.0000 3.6317 -16.1076 2.3622
9.8960 18.1769 -23.3373 4.5706 -27.9507 2.4924 -0.0000 0.0000 -0.0000 -27.7475 -3.6892 5.0601 0.6340 5.4197 14.7979 0.2305 1.6568 -11.6815 1.4814 -7.9391 -22.6291 0.0000 -0.0000 -0.0000 10.9955 19.8524 -25.0761 -3.6832 -11.3206 33.8318 0.2629 -15.2572 -15.5188 -0.0423 0.3978 -0.9916 -4.7693 -1.4927 11.9801 -1.0871 -2.5003 1.7765 1.9937 -1.1871 -4.6210 1.4353 1.8382 -4.3021 0.5570 2.3518 4.6865 -0.0569 1.2868 2.4201 0.0000 0.0000 -0.0000 -75.7361 -22.9916 33.5210 14.3824 -23.3329 -2.9067 -0.0000 -0.0000 -10.1274 37.1851 14.0454 10.2006 -7.1340 0.0000 -0.0000 9.4466 47.0570 0.4998 0.0000 0.0000 0.0000 84.7566 -3.7022 22.2829 -14.8886 24.1882 -3.0621 0.0000 0.0000 15.2241 -21.1603 14.5960 -5.6597 7.1340 0.0000 0.0000 4.3936 -14.4189 3.1039
9.8206 18.1134 -23.1907 4.5070 -28.2026 2.7063 -0.0000 0.0000 -0.0000 -27.7718 -3.2129 5.6273 0.5949 5.2146 14.2547 0.2249 1.5497 -11.4163 1.5832 -8.0334 -22.9489 0.0000 -0.0000 -0.0000 10.7824 20.6614 -25.0190 -3.2088 -10.6167 31.3714 0.3114 -15.2829 -14.8409 -0.0651 0.2223 -0.5003 -4.5697 -1.5225 11.6360 -1.0936 -2.5261 1.7996 1.8600 -1.2028 -4.4365 1.6384 2.0601 -4.4400 0.4432 2.6586 4.5008 -0.0933 1.4259 2.3792 0.0000 0.0000 -0.0000 -75.3689 -23.1935 34.0752 14.8211 -23.9303 -3.0817 -0.0000 -0.0000 -10.5775 37.5928 13.1068 9.7798 -7.1135 0.0000 -0.0000 9.7735 46.0503 0.2646 0.0000 0.0000 0.0000 84.8433 -3.7782 22.0923 -14.7797 24.0325 -3.0221 0.0000 0.0000 15.5422 -20.4110 14.4439 -5.4027 7.1135 0.0000 0.0000 4.8439 -14.5696 3.4133
9.7437 18.0221 -23.0577 4.5703 -28.8334 2.8580 -0.0000 0.0000 -0.0000 -27.8875 -2.3845 6.0901 0.5428 4.9805 13.6053 0.2149 1.7095 -11.0223 1.8799 -8.4415 -24.2546 -0.0000 -0.0000 -0.0000 10.4180 21.7887 -24.9439 -2.7720 -9.8549 28.8641 0.3401 -14.7119 -13.4509 -0.0813 -0.1185 0.4480 -4.6875 -1.5622 11.2777 -1.0096 -2.5993 1.7953 2.0037 -1.2444 -4.2301 1.1267 2.2897 -4.3715 0.5345 2.9860 4.4532 0.0757 1.5354 2.3483 0.0000 0.0000 0.0000 -75.1183 -23.3383 33.7266 15.3000 -24.5786 -3.2857 0.0000 0.0000 -10.7624 37.7826 13.0142 9.8441 -7.0779 -0.0000 0.0000 9.9087 46.0116 0.2492 0.0000 0.0000 0.0000 84.6107 -3.5695 22.3571 -14.5248 23.6396 -2.9469 0.0000 0.0000 15.7732 -20.1230 14.4606 -5.3612 7.0779 0.0000 0.0000 4.9560 -14.4224 3.4971
9.6699 17.9485 -22.9437 4.6680 -29.0131 3.0698 -0.0000 -0.0000 -0.0000 -27.8575 -2.0458 6.6281 0.5221 4.6758 12.8576 0.1568 1.8932 -10.4317 2.1216 -8.9054 -25.6816 -0.0000 0.0000 0.0000 9.9354 22.9731 -24.9555 -2.3092 -9.1831 26.4935 0.4273 -14.7919 -12.2373 -0.1062 -0.1397 0.5112 -5.1125 -1.7887 11.2193 -0.6381 -2.9475 1.6678 2.6656 -1.4200 -4.2510 0.1433 2.6649 -3.8240 0.6792 3.5872 3.8072 0.3794 1.7236 2.0700 0.0000 0.0000 0.0000 -75.1569 -23.2306 33.2182 15.7601 -25.1893 -3.4871 0.0000 0.0000 -11.2511 37.8074 12.9730 9.8527 -7.0474 -0.0000 0.0000 9.9043 45.9862 0.2370 0.0000 0.0000 0.0000 83.9405 -3.5013 23.1187 -14.2969 23.2772 -2.8875 0.0000 0.0000 15.8346 -20.0349 14.8661 -5.5155 7.0474 0.0000 0.0000 4.9723 -13.8672 3.5549
9.5968 17.8650 -22.7879 4.8045 -29.4050 3.1102 0.0000 -0.0000 -0.0000 -28.0598 -1.3795 7.3037 0.5034 4.4121 12.2097 0.1310 1.9888 -10.0696 2.2814 -9.1522 -26.4659 -0.0000 0.0000 0.0000 9.4086 24.2498 -24.6848 -1.9046 -8.5182 24.2583 0.4888 -14.9395 -11.5427 -0.1536 -0.0487 0.2595 -5.3041 -1.8143 11.0366 -0.4626 -3.0012 1.6329 2.9550 -1.4525 -4.1421 -0.5786 2.4798 -4.0268 0.6498 3.2934 4.8467 0.4544 1.5865 2.4058 0.0000 -0.0000 0.0000 -75.3140 -22.9851 33.1247 16.2982 -25.9027 -3.7233 0.0000 0.0000 -11.4679 37.9903 12.4823 9.6513 -7.0205 -0.0000 0.0000 10.0202 45.4737 0.1022 0.0000 0.0000 0.0000 83.6218 -3.6052 23.2545 -14.1609 23.0792 -2.8397 0.0000 0.0000 16.1681 -19.6565 15.3668 -5.6180 7.0205 0.0000 0.0000 5.1919 -13.2551 3.7670
